G04*
G04 #@! TF.GenerationSoftware,Altium Limited,Altium Designer,26.3.0 (6)*
G04*
G04 Layer_Color=65535*
%FSLAX44Y44*%
%MOMM*%
G71*
G04*
G04 #@! TF.SameCoordinates,1CEABB61-85DC-4832-A49C-9BD84DF91DE1*
G04*
G04*
G04 #@! TF.FilePolarity,Positive*
G04*
G01*
G75*
%ADD10C,0.2000*%
%ADD11C,0.2540*%
%ADD12C,0.1000*%
%ADD13C,0.1270*%
D10*
X102600Y178855D02*
G03*
X102600Y178855I-1000J0D01*
G01*
X-35300Y57040D02*
Y75040D01*
X-66300Y57040D02*
Y75040D01*
X-65800D01*
X-66300Y57040D02*
X-65800D01*
X-35800Y75040D02*
X-35300D01*
X-35800Y57040D02*
X-35300D01*
X-98335Y156707D02*
Y169708D01*
X119276Y229853D02*
Y242853D01*
X82400Y98400D02*
X95400D01*
X57000D02*
X70000D01*
X-95400Y93420D02*
X-82400D01*
X56Y102920D02*
X13056D01*
X-67260Y100180D02*
Y113180D01*
X-96523Y31301D02*
X-83523D01*
X-62443Y199856D02*
X-55853D01*
X-62443Y220176D02*
X-55853D01*
X-99033Y199856D02*
X-92443D01*
X-99033Y220176D02*
X-92443D01*
X-99033Y199856D02*
Y220176D01*
X-55853Y199856D02*
Y220176D01*
D11*
X15240Y251460D02*
G03*
X15240Y251460I-15240J0D01*
G01*
X-24130Y231140D02*
Y271780D01*
X24130D01*
X-24130Y231140D02*
X24130D01*
Y271780D01*
X-17780Y26670D02*
X8890D01*
X-17780Y54610D02*
X16510D01*
Y39370D02*
Y43180D01*
X-17780Y39370D02*
Y43180D01*
X-91199Y86358D02*
X-93739Y88897D01*
X-98817D01*
X-101356Y86358D01*
Y76202D01*
X-98817Y73663D01*
X-93739D01*
X-91199Y76202D01*
X-75964Y73663D02*
X-86121D01*
X-75964Y83819D01*
Y86358D01*
X-78503Y88897D01*
X-83582D01*
X-86121Y86358D01*
X-55629Y135632D02*
X-58169Y138171D01*
X-63247D01*
X-65786Y135632D01*
Y125475D01*
X-63247Y122936D01*
X-58169D01*
X-55629Y125475D01*
X-50551Y122936D02*
X-45473D01*
X-48012D01*
Y138171D01*
X-50551Y135632D01*
X20324Y113033D02*
Y128267D01*
X27942D01*
X30481Y125728D01*
Y120650D01*
X27942Y118111D01*
X20324D01*
X25403D02*
X30481Y113033D01*
X45716D02*
X35559D01*
X45716Y123189D01*
Y125728D01*
X43177Y128267D01*
X38098D01*
X35559Y125728D01*
X-119377Y105389D02*
Y120624D01*
X-111759D01*
X-109220Y118084D01*
Y113006D01*
X-111759Y110467D01*
X-119377D01*
X-114298D02*
X-109220Y105389D01*
X-104142D02*
X-99063D01*
X-101602D01*
Y120624D01*
X-104142Y118084D01*
X50800Y81280D02*
X35565D01*
Y88897D01*
X38104Y91437D01*
X43183D01*
X45722Y88897D01*
Y81280D01*
Y86358D02*
X50800Y91437D01*
Y104133D02*
X35565D01*
X43183Y96515D01*
Y106672D01*
X82804Y106934D02*
Y122169D01*
X90421D01*
X92961Y119630D01*
Y114551D01*
X90421Y112012D01*
X82804D01*
X87882D02*
X92961Y106934D01*
X98039Y119630D02*
X100578Y122169D01*
X105657D01*
X108196Y119630D01*
Y117091D01*
X105657Y114551D01*
X103117D01*
X105657D01*
X108196Y112012D01*
Y109473D01*
X105657Y106934D01*
X100578D01*
X98039Y109473D01*
X109170Y205870D02*
X106631Y203330D01*
Y198252D01*
X109170Y195713D01*
X119327D01*
X121866Y198252D01*
Y203330D01*
X119327Y205870D01*
X109170Y210948D02*
X106631Y213487D01*
Y218566D01*
X109170Y221105D01*
X111709D01*
X114249Y218566D01*
Y216026D01*
Y218566D01*
X116788Y221105D01*
X119327D01*
X121866Y218566D01*
Y213487D01*
X119327Y210948D01*
X-86688Y266695D02*
Y251460D01*
X-76532D01*
X-71453Y259077D02*
X-61297D01*
X-129540Y266695D02*
Y251460D01*
X-119383D01*
X-114305Y259077D02*
X-104148D01*
X-109227Y264156D02*
Y253999D01*
X-45473Y169696D02*
X-48012Y172235D01*
X-53090D01*
X-55629Y169696D01*
Y159539D01*
X-53090Y157000D01*
X-48012D01*
X-45473Y159539D01*
X-32777Y157000D02*
Y172235D01*
X-40394Y164618D01*
X-30238D01*
X36830Y299715D02*
Y284480D01*
X44447D01*
X46987Y287019D01*
Y289558D01*
X44447Y292097D01*
X36830D01*
X44447D01*
X46987Y294637D01*
Y297176D01*
X44447Y299715D01*
X36830D01*
X52065Y292097D02*
X62222D01*
X81280Y299715D02*
Y284480D01*
X88897D01*
X91437Y287019D01*
Y289558D01*
X88897Y292097D01*
X81280D01*
X88897D01*
X91437Y294637D01*
Y297176D01*
X88897Y299715D01*
X81280D01*
X96515Y292097D02*
X106672D01*
X101593Y297176D02*
Y287019D01*
D12*
X-65550Y53040D02*
G03*
X-65550Y53040I-500J0D01*
G01*
X-95993Y202396D02*
G03*
X-95993Y202396I-500J0D01*
G01*
D13*
X106210Y131345D02*
Y184245D01*
X53810Y131345D02*
Y184245D01*
M02*
