G04*
G04 #@! TF.GenerationSoftware,Altium Limited,Altium Designer,26.3.0 (6)*
G04*
G04 Layer_Physical_Order=2*
G04 Layer_Color=16711680*
%FSLAX44Y44*%
%MOMM*%
G71*
G04*
G04 #@! TF.SameCoordinates,1CEABB61-85DC-4832-A49C-9BD84DF91DE1*
G04*
G04*
G04 #@! TF.FilePolarity,Positive*
G04*
G01*
G75*
%ADD37C,0.5080*%
%ADD39C,2.5400*%
%ADD40C,1.2700*%
%ADD41R,0.4000X1.3500*%
%ADD42R,2.5400X2.5400*%
%ADD43C,0.3810*%
G36*
X144834Y299421D02*
X115387Y19675D01*
X53340D01*
X51643Y19338D01*
X50204Y18376D01*
X49242Y16937D01*
X48905Y15240D01*
Y-70117D01*
X48260Y-71120D01*
X47635Y-71120D01*
X34290D01*
Y-86360D01*
Y-101600D01*
X47635D01*
X48260Y-101600D01*
X48905Y-102603D01*
Y-104785D01*
X-48905D01*
Y-102603D01*
X-48260Y-101600D01*
X-47635Y-101600D01*
X-34290D01*
Y-86360D01*
X-33020D01*
D01*
X-34290D01*
Y-71120D01*
X-47635D01*
X-48260Y-71120D01*
X-48905Y-70117D01*
Y15240D01*
X-49242Y16937D01*
X-50204Y18376D01*
X-51643Y19338D01*
X-53340Y19675D01*
X-115387D01*
X-144834Y299421D01*
X-143984Y300365D01*
X143984D01*
X144834Y299421D01*
D02*
G37*
%LPC*%
G36*
X70778Y289415D02*
X70547D01*
Y275445D01*
X84517D01*
Y275676D01*
X83931Y278620D01*
X82782Y281394D01*
X81114Y283890D01*
X78991Y286012D01*
X76495Y287680D01*
X73722Y288829D01*
X70778Y289415D01*
D02*
G37*
G36*
X68007D02*
X67776D01*
X64831Y288829D01*
X62058Y287680D01*
X59562Y286012D01*
X57439Y283890D01*
X55771Y281394D01*
X54622Y278620D01*
X54037Y275676D01*
Y275445D01*
X68007D01*
Y289415D01*
D02*
G37*
G36*
X-65354Y294557D02*
X-68463D01*
X-71511Y293951D01*
X-74383Y292761D01*
X-76968Y291035D01*
X-79166Y288837D01*
X-80892Y286252D01*
X-82082Y283380D01*
X-82688Y280332D01*
Y277223D01*
X-82082Y274175D01*
X-80892Y271303D01*
X-79166Y268718D01*
X-76968Y266520D01*
X-74383Y264793D01*
X-71511Y263604D01*
X-68463Y262997D01*
X-65354D01*
X-62306Y263604D01*
X-59434Y264793D01*
X-56849Y266520D01*
X-54651Y268718D01*
X-52924Y271303D01*
X-51735Y274175D01*
X-51128Y277223D01*
Y280332D01*
X-51735Y283380D01*
X-52924Y286252D01*
X-54651Y288837D01*
X-56849Y291035D01*
X-59434Y292761D01*
X-62306Y293951D01*
X-65354Y294557D01*
D02*
G37*
G36*
X84517Y272905D02*
X70547D01*
Y258935D01*
X70778D01*
X73722Y259520D01*
X76495Y260669D01*
X78991Y262337D01*
X81114Y264460D01*
X82782Y266956D01*
X83931Y269729D01*
X84517Y272674D01*
Y272905D01*
D02*
G37*
G36*
X68007D02*
X54037D01*
Y272674D01*
X54622Y269729D01*
X55771Y266956D01*
X57439Y264460D01*
X59562Y262337D01*
X62058Y260669D01*
X64831Y259520D01*
X67776Y258935D01*
X68007D01*
Y272905D01*
D02*
G37*
G36*
X-105126Y294557D02*
X-108234D01*
X-111283Y293951D01*
X-114155Y292761D01*
X-116739Y291035D01*
X-118937Y288837D01*
X-120664Y286252D01*
X-121854Y283380D01*
X-122460Y280332D01*
Y277223D01*
X-121854Y274175D01*
X-120664Y271303D01*
X-118937Y268718D01*
X-116739Y266520D01*
X-114155Y264793D01*
X-111283Y263604D01*
X-110642Y263476D01*
Y261969D01*
X-110206Y259776D01*
X-108964Y257917D01*
X-87025Y235978D01*
X-85166Y234736D01*
X-82973Y234300D01*
X91883D01*
X94076Y234736D01*
X95935Y235978D01*
X109626Y249669D01*
X110868Y251528D01*
X111304Y253721D01*
Y258500D01*
X113823Y259001D01*
X116695Y260191D01*
X119279Y261917D01*
X121477Y264116D01*
X123204Y266700D01*
X124394Y269572D01*
X125000Y272620D01*
Y275729D01*
X124394Y278778D01*
X123204Y281649D01*
X121477Y284234D01*
X119279Y286432D01*
X116695Y288159D01*
X113823Y289348D01*
X110774Y289955D01*
X107666D01*
X104617Y289348D01*
X101745Y288159D01*
X99161Y286432D01*
X96963Y284234D01*
X95236Y281649D01*
X94046Y278778D01*
X93440Y275729D01*
Y272620D01*
X94046Y269572D01*
X95236Y266700D01*
X96963Y264116D01*
X99161Y261917D01*
X99844Y261461D01*
Y256095D01*
X89509Y245760D01*
X-80599D01*
X-98573Y263734D01*
X-98440Y265305D01*
X-96621Y266520D01*
X-94423Y268718D01*
X-92696Y271303D01*
X-91506Y274175D01*
X-90900Y277223D01*
Y280332D01*
X-91506Y283380D01*
X-92696Y286252D01*
X-94423Y288837D01*
X-96621Y291035D01*
X-99205Y292761D01*
X-102077Y293951D01*
X-105126Y294557D01*
D02*
G37*
G36*
X60960Y223169D02*
Y215576D01*
X68553D01*
X67974Y217737D01*
X66804Y219764D01*
X65149Y221420D01*
X63121Y222590D01*
X60960Y223169D01*
D02*
G37*
G36*
X58420D02*
X56259Y222590D01*
X54231Y221420D01*
X52576Y219764D01*
X51406Y217737D01*
X50827Y215576D01*
X58420D01*
Y223169D01*
D02*
G37*
G36*
X68553Y213036D02*
X60960D01*
Y205442D01*
X63121Y206022D01*
X65149Y207192D01*
X66804Y208847D01*
X67974Y210874D01*
X68553Y213036D01*
D02*
G37*
G36*
X58420D02*
X50827D01*
X51406Y210874D01*
X52576Y208847D01*
X54231Y207192D01*
X56259Y206022D01*
X58420Y205442D01*
Y213036D01*
D02*
G37*
G36*
X0Y197472D02*
X-3342Y197143D01*
X-6556Y196168D01*
X-9518Y194585D01*
X-12114Y192454D01*
X-14245Y189858D01*
X-15828Y186896D01*
X-16803Y183682D01*
X-17133Y180340D01*
X-16803Y176998D01*
X-15828Y173784D01*
X-14245Y170822D01*
X-12114Y168225D01*
X-9518Y166095D01*
X-6556Y164512D01*
X-3342Y163537D01*
X0Y163207D01*
X3342Y163537D01*
X6556Y164512D01*
X9518Y166095D01*
X12114Y168225D01*
X14245Y170822D01*
X15828Y173784D01*
X16803Y176998D01*
X17133Y180340D01*
X16803Y183682D01*
X15828Y186896D01*
X14245Y189858D01*
X12114Y192454D01*
X9518Y194585D01*
X6556Y196168D01*
X3342Y197143D01*
X0Y197472D01*
D02*
G37*
G36*
X46199Y79330D02*
X43717D01*
X41318Y78687D01*
X39168Y77446D01*
X37412Y75690D01*
X36171Y73540D01*
X35528Y71141D01*
Y68658D01*
X36171Y66260D01*
X37412Y64110D01*
X39168Y62354D01*
X39228Y62319D01*
Y40601D01*
X39168Y40566D01*
X37412Y38810D01*
X36171Y36660D01*
X35528Y34262D01*
Y31779D01*
X36171Y29380D01*
X37412Y27230D01*
X39168Y25474D01*
X41318Y24233D01*
X43717Y23590D01*
X46199D01*
X48598Y24233D01*
X50748Y25474D01*
X52504Y27230D01*
X53745Y29380D01*
X54388Y31779D01*
Y34262D01*
X53745Y36660D01*
X52504Y38810D01*
X50748Y40566D01*
X50688Y40601D01*
Y62319D01*
X50748Y62354D01*
X52504Y64110D01*
X53745Y66260D01*
X54388Y68658D01*
Y71141D01*
X53745Y73540D01*
X52504Y75690D01*
X50748Y77446D01*
X48598Y78687D01*
X46199Y79330D01*
D02*
G37*
G36*
X0Y17133D02*
X-3342Y16803D01*
X-6556Y15828D01*
X-9518Y14245D01*
X-12114Y12114D01*
X-14245Y9518D01*
X-15828Y6556D01*
X-16803Y3342D01*
X-17133Y0D01*
X-16803Y-3342D01*
X-15828Y-6556D01*
X-14245Y-9518D01*
X-12114Y-12114D01*
X-9518Y-14245D01*
X-6556Y-15828D01*
X-3342Y-16803D01*
X0Y-17133D01*
X3342Y-16803D01*
X6556Y-15828D01*
X9518Y-14245D01*
X12114Y-12114D01*
X14245Y-9518D01*
X15828Y-6556D01*
X16803Y-3342D01*
X17133Y0D01*
X16803Y3342D01*
X15828Y6556D01*
X14245Y9518D01*
X12114Y12114D01*
X9518Y14245D01*
X6556Y15828D01*
X3342Y16803D01*
X0Y17133D01*
D02*
G37*
G36*
X-14270Y-46510D02*
X-17540D01*
Y-54530D01*
X-14270D01*
Y-46510D01*
D02*
G37*
G36*
Y-57070D02*
X-17540D01*
Y-65090D01*
X-14270D01*
Y-57070D01*
D02*
G37*
G36*
X-70787Y65694D02*
X-73270D01*
X-75668Y65051D01*
X-77818Y63810D01*
X-79574Y62054D01*
X-80816Y59904D01*
X-81458Y57505D01*
Y55023D01*
X-80816Y52624D01*
X-79574Y50474D01*
X-77818Y48718D01*
X-75668Y47477D01*
X-73270Y46834D01*
X-70787D01*
X-70306Y46963D01*
X-40730Y17387D01*
Y-20230D01*
X-40294Y-22422D01*
X-39052Y-24281D01*
X-22228Y-41106D01*
X-20369Y-42348D01*
X-18176Y-42784D01*
X7917D01*
Y-45970D01*
X-11580D01*
Y-46510D01*
X-11730D01*
Y-55800D01*
Y-65090D01*
X-11580D01*
Y-65630D01*
X18080D01*
Y-52083D01*
X18083Y-52070D01*
Y-39563D01*
X18294Y-39247D01*
X18730Y-37054D01*
X18294Y-34861D01*
X17052Y-33002D01*
X15193Y-31760D01*
X13000Y-31324D01*
X-15802D01*
X-29270Y-17856D01*
Y19760D01*
X-29706Y21953D01*
X-30948Y23812D01*
X-62598Y55462D01*
Y57505D01*
X-63241Y59904D01*
X-64482Y62054D01*
X-66238Y63810D01*
X-68389Y65051D01*
X-70787Y65694D01*
D02*
G37*
G36*
X-31750Y-71120D02*
Y-85090D01*
X-17780D01*
Y-71120D01*
X-31750D01*
D02*
G37*
G36*
X31750D02*
X17780D01*
Y-85090D01*
X31750D01*
Y-71120D01*
D02*
G37*
G36*
X-17780Y-87630D02*
X-31750D01*
Y-101600D01*
X-17780D01*
Y-87630D01*
D02*
G37*
G36*
X31750D02*
X17780D01*
Y-101600D01*
X31750D01*
Y-87630D01*
D02*
G37*
%LPD*%
D37*
X-35000Y-20230D02*
X-18176Y-37054D01*
X13000D01*
X91883Y240030D02*
X105574Y253721D01*
X-82973Y240030D02*
X91883D01*
X105574Y253721D02*
Y270529D01*
X-104912Y261969D02*
X-82973Y240030D01*
X-104912Y261969D02*
Y277010D01*
X-106680Y278778D02*
X-104912Y277010D01*
X105574Y270529D02*
X109220Y274175D01*
X-35000Y-20230D02*
Y19760D01*
X-71714Y56474D02*
X-35000Y19760D01*
X44958Y33020D02*
Y69900D01*
D39*
X-106680Y278778D02*
D03*
X109220Y274175D02*
D03*
X69277Y274175D02*
D03*
X-66908Y278778D02*
D03*
D40*
X59690Y214306D02*
D03*
X-72028Y56264D02*
D03*
X44958Y33020D02*
D03*
Y69900D02*
D03*
D41*
X13000Y-55800D02*
D03*
X6500D02*
D03*
X0D02*
D03*
X-6500D02*
D03*
X-13000D02*
D03*
D42*
X33020Y-86360D02*
D03*
X-33020D02*
D03*
D43*
X13000Y-52070D02*
Y-37054D01*
M02*
