G04*
G04 #@! TF.GenerationSoftware,Altium Limited,Altium Designer,26.3.0 (6)*
G04*
G04 Layer_Physical_Order=1*
G04 Layer_Color=255*
%FSLAX44Y44*%
%MOMM*%
G71*
G04*
G04 #@! TF.SameCoordinates,1CEABB61-85DC-4832-A49C-9BD84DF91DE1*
G04*
G04*
G04 #@! TF.FilePolarity,Positive*
G04*
G01*
G75*
G04:AMPARAMS|DCode=14|XSize=1.71mm|YSize=0.58mm|CornerRadius=0.0725mm|HoleSize=0mm|Usage=FLASHONLY|Rotation=270.000|XOffset=0mm|YOffset=0mm|HoleType=Round|Shape=RoundedRectangle|*
%AMROUNDEDRECTD14*
21,1,1.7100,0.4350,0,0,270.0*
21,1,1.5650,0.5800,0,0,270.0*
1,1,0.1450,-0.2175,-0.7825*
1,1,0.1450,-0.2175,0.7825*
1,1,0.1450,0.2175,0.7825*
1,1,0.1450,0.2175,-0.7825*
%
%ADD14ROUNDEDRECTD14*%
%ADD15R,2.5400X1.2700*%
%ADD16R,1.8000X0.7500*%
%ADD17R,0.5500X1.4500*%
%ADD18R,0.5500X1.4500*%
%ADD19R,1.3000X1.5000*%
%ADD20R,1.5000X1.3000*%
%ADD21R,0.7620X1.4500*%
%ADD22R,0.7620X1.4500*%
%ADD23R,2.5400X1.5240*%
%ADD37C,0.5080*%
%ADD38C,0.7620*%
%ADD39C,2.5400*%
%ADD40C,1.2700*%
G36*
X144735Y298477D02*
X115387Y19675D01*
X53340D01*
X51643Y19338D01*
X50204Y18376D01*
X49242Y16937D01*
X48905Y15240D01*
Y-104785D01*
X-48905D01*
Y15240D01*
X-49242Y16937D01*
X-50204Y18376D01*
X-51643Y19338D01*
X-53340Y19675D01*
X-115387D01*
X-144735Y298477D01*
X-143035Y300365D01*
X143035D01*
X144735Y298477D01*
D02*
G37*
%LPC*%
G36*
X70778Y289415D02*
X70547D01*
Y275445D01*
X84517D01*
Y275676D01*
X83931Y278620D01*
X82782Y281394D01*
X81114Y283890D01*
X78991Y286012D01*
X76495Y287680D01*
X73722Y288829D01*
X70778Y289415D01*
D02*
G37*
G36*
X68007D02*
X67776D01*
X64831Y288829D01*
X62058Y287680D01*
X59562Y286012D01*
X57439Y283890D01*
X55771Y281394D01*
X54622Y278620D01*
X54037Y275676D01*
Y275445D01*
X68007D01*
Y289415D01*
D02*
G37*
G36*
X48260Y278130D02*
X34290D01*
Y270510D01*
X48260D01*
Y278130D01*
D02*
G37*
G36*
X-17780D02*
X-31750D01*
Y270510D01*
X-17780D01*
Y278130D01*
D02*
G37*
G36*
X31750D02*
X17780D01*
Y270510D01*
X31750D01*
Y278130D01*
D02*
G37*
G36*
X-34290D02*
X-48260D01*
Y270510D01*
X-34290D01*
Y278130D01*
D02*
G37*
G36*
X48260Y267970D02*
X34290D01*
Y260350D01*
X48260D01*
Y267970D01*
D02*
G37*
G36*
X31750D02*
X17780D01*
Y260350D01*
X31750D01*
Y267970D01*
D02*
G37*
G36*
X-17780D02*
X-31750D01*
Y260350D01*
X-17780D01*
Y267970D01*
D02*
G37*
G36*
X-34290D02*
X-48260D01*
Y260350D01*
X-34290D01*
Y267970D01*
D02*
G37*
G36*
X84517Y272905D02*
X70547D01*
Y258935D01*
X70778D01*
X73722Y259520D01*
X76495Y260669D01*
X78991Y262337D01*
X81114Y264460D01*
X82782Y266956D01*
X83931Y269729D01*
X84517Y272674D01*
Y272905D01*
D02*
G37*
G36*
X68007D02*
X54037D01*
Y272674D01*
X54622Y269729D01*
X55771Y266956D01*
X57439Y264460D01*
X59562Y262337D01*
X62058Y260669D01*
X64831Y259520D01*
X67776Y258935D01*
X68007D01*
Y272905D01*
D02*
G37*
G36*
X-65354Y294557D02*
X-68463D01*
X-71511Y293951D01*
X-74383Y292761D01*
X-76968Y291035D01*
X-79166Y288837D01*
X-80892Y286252D01*
X-82082Y283380D01*
X-82688Y280332D01*
Y277223D01*
X-82082Y274175D01*
X-80892Y271303D01*
X-79166Y268718D01*
X-79144Y268697D01*
X-102298Y245543D01*
X-104838Y246595D01*
Y263055D01*
X-102077Y263604D01*
X-99205Y264793D01*
X-96621Y266520D01*
X-94423Y268718D01*
X-92696Y271303D01*
X-91506Y274175D01*
X-90900Y277223D01*
Y280332D01*
X-91506Y283380D01*
X-92696Y286252D01*
X-94423Y288837D01*
X-96621Y291035D01*
X-99205Y292761D01*
X-102077Y293951D01*
X-105126Y294557D01*
X-108234D01*
X-111283Y293951D01*
X-114155Y292761D01*
X-116739Y291035D01*
X-118937Y288837D01*
X-120664Y286252D01*
X-121854Y283380D01*
X-122460Y280332D01*
Y277223D01*
X-121854Y274175D01*
X-120664Y271303D01*
X-118937Y268718D01*
X-116739Y266520D01*
X-116298Y266226D01*
Y81421D01*
X-115862Y79228D01*
X-114620Y77369D01*
X-113964Y76714D01*
Y53382D01*
X-113528Y51190D01*
X-112286Y49331D01*
X-103664Y40709D01*
X-101805Y39467D01*
X-100603Y39228D01*
Y31221D01*
X-79443D01*
Y35070D01*
X-51399D01*
X-26050Y29715D01*
Y26190D01*
X-1920D01*
X-1890Y26190D01*
X620D01*
X650Y26190D01*
X24780D01*
Y27290D01*
X37377D01*
X37412Y27230D01*
X39168Y25474D01*
X41318Y24233D01*
X43717Y23590D01*
X46199D01*
X48598Y24233D01*
X50748Y25474D01*
X52504Y27230D01*
X53745Y29380D01*
X54388Y31779D01*
Y34262D01*
X53745Y36660D01*
X52504Y38810D01*
X51324Y39990D01*
X52092Y42386D01*
X52199Y42530D01*
X81280D01*
X83473Y42966D01*
X85332Y44208D01*
X92952Y51828D01*
X94194Y53687D01*
X94630Y55880D01*
Y60320D01*
X99480D01*
Y79320D01*
Y98480D01*
X94630D01*
Y107778D01*
X96885Y109790D01*
X101235D01*
X102720Y110085D01*
X103978Y110926D01*
X104819Y112185D01*
X105114Y113670D01*
Y129320D01*
X104819Y130804D01*
X104790Y130848D01*
Y159678D01*
X113828Y168717D01*
X115070Y170576D01*
X115506Y172768D01*
Y225773D01*
X119356D01*
Y246933D01*
X114950D01*
Y259468D01*
X116695Y260191D01*
X119279Y261917D01*
X121477Y264116D01*
X123204Y266700D01*
X124394Y269572D01*
X125000Y272620D01*
Y275729D01*
X124394Y278778D01*
X123204Y281649D01*
X121477Y284234D01*
X119279Y286432D01*
X116695Y288159D01*
X113823Y289348D01*
X110774Y289955D01*
X107666D01*
X104617Y289348D01*
X101745Y288159D01*
X99161Y286432D01*
X96963Y284234D01*
X95236Y281649D01*
X94046Y278778D01*
X93440Y275729D01*
Y272620D01*
X94046Y269572D01*
X95236Y266700D01*
X96963Y264116D01*
X99161Y261917D01*
X101745Y260191D01*
X103490Y259468D01*
Y248729D01*
X101694Y246933D01*
X100196D01*
X97880Y246393D01*
X92046D01*
Y236353D01*
Y226313D01*
X97880D01*
X100196Y225773D01*
X102250Y225773D01*
X104046Y223977D01*
Y207633D01*
X103841Y207302D01*
X101506Y205745D01*
X101235Y205799D01*
X96885D01*
X95400Y205504D01*
X94247Y204733D01*
X94134Y204663D01*
X92710D01*
X91286D01*
X91173Y204733D01*
X90020Y205504D01*
X88535Y205799D01*
X84185D01*
X82700Y205504D01*
X81930Y204989D01*
X80171Y205562D01*
X79390Y206114D01*
Y225254D01*
X79521Y225871D01*
X81736Y226313D01*
X81902Y226313D01*
X83750Y226313D01*
X89506D01*
Y235083D01*
X81736D01*
Y229153D01*
X80957Y228654D01*
X79196Y228205D01*
X79026Y228362D01*
X78954Y228725D01*
X77712Y230584D01*
X53760Y254535D01*
X51901Y255777D01*
X49708Y256214D01*
X-51762D01*
X-53955Y255777D01*
X-55814Y254535D01*
X-55814Y254535D01*
X-59444Y250906D01*
X-60686Y249047D01*
X-61122Y246854D01*
Y233698D01*
X-62203Y231606D01*
X-63662Y231606D01*
X-76173D01*
Y221446D01*
X-64743D01*
Y204936D01*
X-90143D01*
Y221446D01*
X-78713D01*
Y231606D01*
X-92402D01*
X-92683Y231606D01*
X-94942Y232283D01*
Y236692D01*
X-68608Y263026D01*
X-68463Y262997D01*
X-65354D01*
X-62306Y263604D01*
X-59434Y264793D01*
X-56849Y266520D01*
X-54651Y268718D01*
X-52924Y271303D01*
X-51735Y274175D01*
X-51128Y277223D01*
Y280332D01*
X-51735Y283380D01*
X-52924Y286252D01*
X-54651Y288837D01*
X-56849Y291035D01*
X-59434Y292761D01*
X-62306Y293951D01*
X-65354Y294557D01*
D02*
G37*
G36*
X89506Y246393D02*
X81736D01*
Y237623D01*
X89506D01*
Y246393D01*
D02*
G37*
G36*
X0Y17133D02*
X-3342Y16803D01*
X-6556Y15828D01*
X-9518Y14245D01*
X-12114Y12114D01*
X-14245Y9518D01*
X-15828Y6556D01*
X-16803Y3342D01*
X-17133Y0D01*
X-16803Y-3342D01*
X-15828Y-6556D01*
X-14245Y-9518D01*
X-12114Y-12114D01*
X-9518Y-14245D01*
X-6556Y-15828D01*
X-3342Y-16803D01*
X0Y-17133D01*
X3342Y-16803D01*
X6556Y-15828D01*
X9518Y-14245D01*
X12114Y-12114D01*
X14245Y-9518D01*
X15828Y-6556D01*
X16803Y-3342D01*
X17133Y0D01*
X16803Y3342D01*
X15828Y6556D01*
X14245Y9518D01*
X12114Y12114D01*
X9518Y14245D01*
X6556Y15828D01*
X3342Y16803D01*
X0Y17133D01*
D02*
G37*
%LPD*%
G36*
X67511Y224577D02*
X67288Y222728D01*
X66417Y222195D01*
X64847Y221594D01*
X63121Y222590D01*
X60960Y223169D01*
Y214306D01*
X59690D01*
Y213036D01*
X50827D01*
X51406Y210874D01*
X52576Y208847D01*
X54231Y207192D01*
X55302Y206574D01*
X55578Y206011D01*
X55976Y203994D01*
X55905Y203487D01*
X55709Y203194D01*
X55456Y201920D01*
Y195365D01*
X60960D01*
Y194095D01*
X62230D01*
Y182941D01*
X63135D01*
X64409Y183194D01*
X65489Y183916D01*
X65574Y184043D01*
X65843Y184129D01*
X68410Y184023D01*
X68742Y183526D01*
X70000Y182685D01*
X71485Y182390D01*
X75835D01*
X77320Y182685D01*
X78473Y183456D01*
X78586Y183526D01*
X80010D01*
X81434D01*
X81547Y183456D01*
X82700Y182685D01*
X84185Y182390D01*
X88535D01*
X90020Y182685D01*
X91173Y183456D01*
X91286Y183526D01*
X92710D01*
X94134D01*
X94247Y183456D01*
X95400Y182685D01*
X96885Y182390D01*
X101235D01*
X101506Y182444D01*
X103841Y180887D01*
X104046Y180557D01*
Y175142D01*
X95008Y166104D01*
X93766Y164245D01*
X93330Y162052D01*
Y147756D01*
X90790Y146986D01*
X90412Y147552D01*
X88553Y148794D01*
X86360Y149230D01*
X84167Y148794D01*
X82308Y147552D01*
X81421Y146224D01*
X80456Y146016D01*
X79564D01*
X78599Y146224D01*
X77712Y147552D01*
X75853Y148794D01*
X73660Y149230D01*
X71467Y148794D01*
X69608Y147552D01*
X68366Y145693D01*
X67930Y143500D01*
Y138274D01*
X65390Y137503D01*
X64652Y138608D01*
X47048Y156211D01*
Y213340D01*
X46612Y215532D01*
X45370Y217391D01*
X45370Y217392D01*
X40858Y221903D01*
X41830Y224250D01*
X48800D01*
Y239696D01*
X51340Y240748D01*
X67511Y224577D01*
D02*
G37*
G36*
X-29218Y224148D02*
X26242D01*
Y222686D01*
X26678Y220493D01*
X27920Y218634D01*
X35588Y210966D01*
Y153838D01*
X36024Y151645D01*
X37266Y149786D01*
X54870Y132183D01*
Y121855D01*
X54906Y121676D01*
Y113670D01*
X55201Y112185D01*
X56042Y110926D01*
X57300Y110085D01*
X58785Y109790D01*
X63135D01*
X63940Y109950D01*
X65299Y107717D01*
X61678Y104096D01*
X60436Y102237D01*
X60000Y100044D01*
Y98480D01*
X52920D01*
Y78866D01*
X51736Y78092D01*
X50380Y77658D01*
X48598Y78687D01*
X46199Y79330D01*
X43717D01*
X41318Y78687D01*
X39168Y77446D01*
X37412Y75690D01*
X36171Y73540D01*
X35528Y71141D01*
Y68658D01*
X36171Y66260D01*
X37412Y64110D01*
X39168Y62354D01*
X41318Y61112D01*
X43717Y60470D01*
X46199D01*
X48598Y61112D01*
X50380Y62141D01*
X51736Y61708D01*
X52920Y60934D01*
Y60320D01*
X74080D01*
Y79320D01*
Y98480D01*
X74080D01*
X73550Y99760D01*
X77712Y103923D01*
X77712Y103923D01*
X78954Y105782D01*
X79390Y107974D01*
Y108038D01*
X81930Y109398D01*
X83170Y108573D01*
Y98480D01*
X78320D01*
Y79320D01*
Y60320D01*
X82027D01*
X82696Y57780D01*
X78906Y53990D01*
X24780D01*
Y55090D01*
X650D01*
X620Y55090D01*
X-1890D01*
X-1920Y55090D01*
X-8240D01*
Y58380D01*
X10608Y77228D01*
X11850Y79087D01*
X12286Y81280D01*
Y102840D01*
X17136D01*
Y121840D01*
Y141000D01*
X-4024D01*
Y137150D01*
X-5080D01*
X-7273Y136714D01*
X-9132Y135472D01*
X-18146Y126458D01*
X-20686Y127510D01*
Y128622D01*
X-21122Y130815D01*
X-22364Y132674D01*
X-29214Y139524D01*
X-31073Y140766D01*
X-33266Y141202D01*
X-75348D01*
X-77541Y140766D01*
X-79400Y139524D01*
X-87424Y131500D01*
X-99480D01*
Y112340D01*
X-99480D01*
X-98940Y110024D01*
Y104190D01*
X-88900D01*
Y102920D01*
X-87630D01*
Y93880D01*
X-78860D01*
Y101150D01*
X-77359D01*
X-75166Y101586D01*
X-73307Y102828D01*
X-70331Y105804D01*
X-70331Y105804D01*
X-69880Y106479D01*
X-67340Y105709D01*
Y96100D01*
X-66219D01*
X-66095Y95992D01*
X-64964Y93560D01*
X-65594Y92617D01*
X-66030Y90424D01*
Y87120D01*
X-66130D01*
Y66680D01*
X-66908Y65904D01*
X-67898Y65277D01*
X-68670Y65127D01*
X-70787Y65694D01*
X-73270D01*
X-75668Y65051D01*
X-77443Y64027D01*
X-78818Y64469D01*
X-79983Y65238D01*
Y68841D01*
X-88753D01*
Y59801D01*
X-91293D01*
Y68841D01*
X-100063D01*
Y68841D01*
X-102504Y69079D01*
Y79087D01*
X-102504Y79087D01*
X-102940Y81280D01*
X-104182Y83139D01*
X-104183Y83139D01*
X-104838Y83794D01*
Y194742D01*
X-102298Y195794D01*
X-99573Y193069D01*
Y180636D01*
X-99340D01*
Y168982D01*
X-98904Y166789D01*
X-98415Y166058D01*
Y152627D01*
X-81192D01*
X-79255Y152627D01*
X-76939Y153167D01*
X-71105D01*
Y163207D01*
Y173248D01*
X-76939D01*
X-79255Y173787D01*
X-81192Y173787D01*
X-87880D01*
Y178829D01*
X-85793Y180636D01*
X-83477Y181176D01*
X-83253Y181176D01*
X-78713D01*
Y190966D01*
X-76173D01*
Y181176D01*
X-71409Y181176D01*
X-69093Y180636D01*
X-68777Y180636D01*
X-55313D01*
Y190958D01*
X-54316Y191624D01*
X-51340Y194600D01*
X-51340Y194600D01*
X-50098Y196459D01*
X-49662Y198652D01*
Y222067D01*
X-48800Y224250D01*
X-47122Y224250D01*
X-29732D01*
X-29218Y224148D01*
D02*
G37*
%LPC*%
G36*
X58420Y223169D02*
X56259Y222590D01*
X54231Y221420D01*
X52576Y219764D01*
X51406Y217737D01*
X50827Y215576D01*
X58420D01*
Y223169D01*
D02*
G37*
G36*
X59690Y192825D02*
X55456D01*
Y186270D01*
X55709Y184996D01*
X56431Y183916D01*
X57511Y183194D01*
X58785Y182941D01*
X59690D01*
Y192825D01*
D02*
G37*
G36*
X-68565Y173248D02*
Y164478D01*
X-60795D01*
Y173248D01*
X-68565D01*
D02*
G37*
G36*
X0Y197472D02*
X-3342Y197143D01*
X-6556Y196168D01*
X-9518Y194585D01*
X-12114Y192454D01*
X-14245Y189858D01*
X-15828Y186896D01*
X-16803Y183682D01*
X-17133Y180340D01*
X-16803Y176998D01*
X-15828Y173784D01*
X-14245Y170822D01*
X-12114Y168225D01*
X-9518Y166095D01*
X-6556Y164512D01*
X-3342Y163537D01*
X0Y163207D01*
X3342Y163537D01*
X6556Y164512D01*
X9518Y166095D01*
X12114Y168225D01*
X14245Y170822D01*
X15828Y173784D01*
X16803Y176998D01*
X17133Y180340D01*
X16803Y183682D01*
X15828Y186896D01*
X14245Y189858D01*
X12114Y192454D01*
X9518Y194585D01*
X6556Y196168D01*
X3342Y197143D01*
X0Y197472D01*
D02*
G37*
G36*
X-60795Y161938D02*
X-68565D01*
Y153167D01*
X-60795D01*
Y161938D01*
D02*
G37*
G36*
X-90170Y101650D02*
X-98940D01*
Y93880D01*
X-90170D01*
Y101650D01*
D02*
G37*
%LPD*%
D14*
X99060Y194095D02*
D03*
X86360D02*
D03*
X73660D02*
D03*
X60960D02*
D03*
Y121495D02*
D03*
X73660D02*
D03*
X86360D02*
D03*
X99060D02*
D03*
D15*
X-33020Y269240D02*
D03*
Y233680D02*
D03*
X33020D02*
D03*
Y269240D02*
D03*
D16*
X-13970Y33020D02*
D03*
Y48260D02*
D03*
X12700D02*
D03*
Y33020D02*
D03*
D17*
X-60300Y76790D02*
D03*
X-50800D02*
D03*
X-41300D02*
D03*
Y55290D02*
D03*
X-50800D02*
D03*
D18*
X-60300Y55290D02*
D03*
D19*
X-69835Y163207D02*
D03*
X-88835D02*
D03*
X90776Y236353D02*
D03*
X109776D02*
D03*
X-38760Y106680D02*
D03*
X-57760D02*
D03*
D20*
X88900Y69900D02*
D03*
Y88900D02*
D03*
X63500Y69900D02*
D03*
Y88900D02*
D03*
X-88900Y121920D02*
D03*
Y102920D02*
D03*
X6556Y131420D02*
D03*
Y112420D02*
D03*
X-90023Y59801D02*
D03*
Y40801D02*
D03*
D21*
X-92683Y190966D02*
D03*
D22*
X-77443D02*
D03*
X-62203D02*
D03*
D23*
X-77443Y221446D02*
D03*
D37*
X49708Y250483D02*
X73660Y226532D01*
Y194095D02*
Y226532D01*
X41318Y153838D02*
Y213340D01*
Y153838D02*
X60600Y134556D01*
Y121855D02*
X60960Y121495D01*
X60600Y121855D02*
Y134556D01*
X65730Y91130D02*
Y100044D01*
X63500Y88900D02*
X65730Y91130D01*
Y100044D02*
X73660Y107974D01*
Y143500D01*
X-62514Y189230D02*
Y194095D01*
X-110568Y81421D02*
Y274889D01*
Y81421D02*
X-108234Y79087D01*
Y53382D02*
X-99613Y44761D01*
X-108234Y53382D02*
Y79087D01*
X31972Y222686D02*
X41318Y213340D01*
X-74383Y115367D02*
X-65290Y124460D01*
X-38760Y106680D02*
Y120650D01*
X-65290Y124460D02*
X-42570D01*
X-38760Y120650D01*
X-77359Y106880D02*
X-74383Y109856D01*
X-84940Y106880D02*
X-77359D01*
X-74383Y109856D02*
Y115367D01*
X-88900Y102920D02*
X-84940Y106880D01*
X-75348Y135472D02*
X-33266D01*
X-26416Y93980D02*
Y128622D01*
X-33266Y135472D02*
X-26416Y128622D01*
X-88900Y121920D02*
X-75348Y135472D01*
X28582Y233680D02*
X33020D01*
X31964Y229878D02*
X31972Y229870D01*
X-29218Y229878D02*
X24780D01*
X28582Y233680D01*
X31972Y222686D02*
Y229870D01*
X-33020Y233680D02*
X-29218Y229878D01*
X24780D02*
X31964D01*
X-100672Y239065D02*
X-66908Y272829D01*
X-100672Y202272D02*
X-93610Y195210D01*
X-110568Y274889D02*
X-106680Y278778D01*
X-100672Y202272D02*
Y239065D01*
X-93610Y168982D02*
Y195210D01*
X-99613Y44761D02*
X-93983D01*
X-90023Y40800D01*
X-66908Y272829D02*
Y278778D01*
X-51762Y250483D02*
X49708D01*
X-55392Y198652D02*
Y246854D01*
X-51762Y250483D01*
X-60933Y195676D02*
X-58368D01*
X-62514Y194095D02*
X-60933Y195676D01*
X-58368D02*
X-55392Y198652D01*
X-88835Y163207D02*
Y164207D01*
X-93610Y168982D02*
X-88835Y164207D01*
X-60300Y56264D02*
Y90424D01*
X109220Y236353D02*
Y274175D01*
X109776Y172768D02*
Y236353D01*
X99060Y162052D02*
X109776Y172768D01*
X-41300Y85700D02*
X-34696D01*
X-41300Y60706D02*
X-30480D01*
X-41300Y76790D02*
Y85700D01*
X-34696D02*
X-26416Y93980D01*
X-41300Y55290D02*
Y60706D01*
X-30480D02*
X-16510Y74676D01*
Y119990D01*
X-5080Y131420D01*
X6556D01*
X-69835Y56474D02*
X-60510D01*
X-60300Y56264D01*
Y55290D02*
Y56264D01*
Y90424D02*
X-57760Y92964D01*
Y106680D01*
X88900Y88900D02*
Y116078D01*
X86360Y118618D02*
Y143500D01*
Y118618D02*
X88900Y116078D01*
X-13970Y48260D02*
Y60754D01*
X6556Y81280D01*
Y112420D01*
X12700Y48260D02*
X81280D01*
X88900Y55880D01*
Y69900D01*
X12700Y33020D02*
X44958D01*
Y69900D02*
X63500D01*
X-50590Y77001D02*
Y87950D01*
X-50800Y76790D02*
X-50590Y77001D01*
Y87950D02*
X-42720Y95820D01*
Y102720D01*
X-38760Y106680D01*
X-90023Y40800D02*
X-50800D01*
Y55290D01*
Y40800D02*
X-13970Y33020D01*
X99060Y121495D02*
Y162052D01*
D38*
X-77443Y190966D02*
Y221446D01*
D39*
X-106680Y278778D02*
D03*
X109220Y274175D02*
D03*
X69277Y274175D02*
D03*
X-66908Y278778D02*
D03*
D40*
X59690Y214306D02*
D03*
X-72028Y56264D02*
D03*
X44958Y33020D02*
D03*
Y69900D02*
D03*
M02*
