G04*
G04 #@! TF.GenerationSoftware,Altium Limited,Altium Designer,26.3.0 (6)*
G04*
G04 Layer_Color=8421504*
%FSLAX44Y44*%
%MOMM*%
G71*
G04*
G04 #@! TF.SameCoordinates,1CEABB61-85DC-4832-A49C-9BD84DF91DE1*
G04*
G04*
G04 #@! TF.FilePolarity,Positive*
G04*
G01*
G75*
G04:AMPARAMS|DCode=14|XSize=1.71mm|YSize=0.58mm|CornerRadius=0.0725mm|HoleSize=0mm|Usage=FLASHONLY|Rotation=270.000|XOffset=0mm|YOffset=0mm|HoleType=Round|Shape=RoundedRectangle|*
%AMROUNDEDRECTD14*
21,1,1.7100,0.4350,0,0,270.0*
21,1,1.5650,0.5800,0,0,270.0*
1,1,0.1450,-0.2175,-0.7825*
1,1,0.1450,-0.2175,0.7825*
1,1,0.1450,0.2175,0.7825*
1,1,0.1450,0.2175,-0.7825*
%
%ADD14ROUNDEDRECTD14*%
%ADD15R,2.5400X1.2700*%
%ADD16R,1.8000X0.7500*%
%ADD17R,0.5500X1.4500*%
%ADD18R,0.5500X1.4500*%
%ADD19R,1.3000X1.5000*%
%ADD20R,1.5000X1.3000*%
%ADD21R,0.7620X1.4500*%
%ADD22R,0.7620X1.4500*%
%ADD23R,2.5400X1.5240*%
D14*
X99060Y194095D02*
D03*
X86360D02*
D03*
X73660D02*
D03*
X60960D02*
D03*
Y121495D02*
D03*
X73660D02*
D03*
X86360D02*
D03*
X99060D02*
D03*
D15*
X-33020Y269240D02*
D03*
Y233680D02*
D03*
X33020D02*
D03*
Y269240D02*
D03*
D16*
X-13970Y33020D02*
D03*
Y48260D02*
D03*
X12700D02*
D03*
Y33020D02*
D03*
D17*
X-60300Y76790D02*
D03*
X-50800D02*
D03*
X-41300D02*
D03*
Y55290D02*
D03*
X-50800D02*
D03*
D18*
X-60300Y55290D02*
D03*
D19*
X-69835Y163207D02*
D03*
X-88835D02*
D03*
X90776Y236353D02*
D03*
X109776D02*
D03*
X-38760Y106680D02*
D03*
X-57760D02*
D03*
D20*
X88900Y69900D02*
D03*
Y88900D02*
D03*
X63500Y69900D02*
D03*
Y88900D02*
D03*
X-88900Y121920D02*
D03*
Y102920D02*
D03*
X6556Y131420D02*
D03*
Y112420D02*
D03*
X-90023Y59801D02*
D03*
Y40801D02*
D03*
D21*
X-92683Y190966D02*
D03*
D22*
X-77443D02*
D03*
X-62203D02*
D03*
D23*
X-77443Y221446D02*
D03*
M02*
